<?xml version="1.0" encoding="utf-8"?>
<!-- Generator: Adobe Illustrator 23.0.3, SVG Export Plug-In . SVG Version: 6.00 Build 0)  -->
<svg version="1.1" id="Слой_1" xmlns="http://www.w3.org/2000/svg" xmlns:xlink="http://www.w3.org/1999/xlink" x="0px" y="0px"
	 viewBox="98 200 400 440" style="enable-background:new 0 0 595.28 841.89;" xml:space="preserve">
<style type="text/css">
	.st0{fill:#0077B3;}
	.st1{fill:#449528;}
	.st2{fill:#868786;}
	.st3{fill:#FFFFFF;}
</style>
<g>
	<path class="st0" d="M395.1,471.17v-57.51l-36.51-21.07v81.46C370.88,473.55,383.21,472.72,395.1,471.17z"/>
	<g>
		<path class="st0" d="M354.7,474.21v-88.35l9.47,5.46v-72.07l-45.92,30.77v28.36l11.81-7.92v104.45
			C338.13,474.71,346.39,474.52,354.7,474.21z"/>
		<path class="st0" d="M358.59,392.59v81.45c1.86-0.08,3.71-0.15,5.57-0.24v-77.99L358.59,392.59z"/>
		<path class="st0" d="M356.06,474.16c-0.29,0.01-0.57,0.02-0.86,0.03C355.48,474.18,355.77,474.17,356.06,474.16z"/>
	</g>
	<g>
		<path class="st0" d="M237.22,487c7.56-2.08,15.73-4,24.55-5.76c-0.74,0.15-1.48,0.29-2.21,0.44v-146.3l13.01,7.51v-58.74
			l-45.92,30.77v76.22l10.82-7.25v103.04C237.39,486.95,237.31,486.98,237.22,487z"/>
		<path class="st0" d="M263.46,342.13v138.78c-0.05,0.01-0.1,0.02-0.15,0.03c3.02-0.59,6.1-1.16,9.27-1.71V347.39L263.46,342.13z"/>
	</g>
	<g>
		<path class="st0" d="M292.59,400.25v76.33c-1.3,0.11-2.59,0.23-3.86,0.36c3.62-0.36,7.37-0.66,11.23-0.9v-80.73L292.59,400.25z"/>
		<path class="st0" d="M288.7,398.18l11.26-7.55v-27.43l-36.51-21.07v138.78c4.65-0.91,9.46-1.77,14.48-2.58
			c3.43-0.55,7.03-1.01,10.77-1.38V398.18z"/>
	</g>
	<path class="st0" d="M326.17,475.01v-97.25l-33.57,22.5v76.33C302.97,475.7,314.32,475.31,326.17,475.01z"/>
	<path class="st0" d="M233.59,488.03v-96.84l-33.57,22.5v86.91C209.51,496,220.62,491.78,233.59,488.03z"/>
	<path class="st1" d="M494.5,398.09c-0.04-0.4-0.09-0.82-0.13-1.23c0-0.02,0.01-0.03,0.01-0.05c-0.3-2.96-0.67-6-1.11-9.11
		c-0.03-0.23-0.07-0.46-0.1-0.69c-0.23-1.63-0.48-3.29-0.75-4.96c-0.02-0.1-0.03-0.2-0.05-0.3c-6.55-40.08-24.72-90.66-69.74-132.19
		c-21.32-19.67-54.28-30.56-86.1-33.33c-25.6-2.23-50.78,1.39-69.66,5.25c-1.44,0.29-2.12-1.73-0.78-2.35
		c7.73-3.62,16.56-6.57,25.62-8.26c17.35-3.25,35.56-3.37,50.15-2.46c1.52,0.1,1.85-2.09,0.38-2.46
		c-14.21-3.62-29.01-5.53-44.22-5.53c-101.45,0-185.03,85.2-196.14,194.84c-0.16,1.59,2.18,1.93,2.48,0.37
		c7.83-41.53,34.17-121.47,137.06-131.79c62.22-6.24,64.23,35.49,119.42,40.25c25.67,2.22,53.65-8.19,55.9-35.38
		c0.07-0.89,1.05-1.41,1.83-0.98c16.67,9.28,56.27,48.45,69.15,108.44h0c0.34,1.57,0.65,3.16,0.95,4.75c0.06,0.33,0.13,0.67,0.19,1
		c0.25,1.35,0.47,2.71,0.69,4.08c0.13,0.79,0.25,1.58,0.36,2.38c0.16,1.07,0.31,2.14,0.45,3.22c0.16,1.23,0.29,2.47,0.43,3.71
		c0.11,0.99,0.23,1.96,0.32,2.96c0.2,0,0.66-0.02,1.18-0.04l0,0c0,0,0.01,0,0.02,0c0.27-0.01,0.56-0.03,0.83-0.04
		c0.02,0,0.05,0,0.07,0c0,0,0,0,0,0C493.8,398.14,494.35,398.11,494.5,398.09C494.5,398.09,494.5,398.09,494.5,398.09z"/>
	<path class="st2" d="M495.18,414.64c0.01-1.76-0.01-3.54-0.06-5.33c0-0.02,0-0.03,0-0.05c-0.05-1.8-0.13-3.61-0.23-5.44
		c-0.01-0.09-0.01-0.19-0.02-0.28c-0.08-1.4-0.17-2.81-0.28-4.22c0-0.02-0.01-0.04-0.02-0.06c-0.03-0.39-0.05-0.77-0.08-1.16
		c0,0,0,0,0,0c-0.15,0.02-0.68,0.05-1.28,0.08c-0.31,0.02-0.64,0.03-0.95,0.05c-0.51,0.02-0.97,0.04-1.17,0.04
		c-0.03,1.87-0.11,3.68-0.22,5.47c-0.01,0.15-0.01,0.3-0.02,0.45c-0.24,3.78-0.66,7.38-1.24,10.82c-0.01,0.06-0.02,0.12-0.03,0.19
		c-0.28,1.66-0.6,3.28-0.96,4.87c-18.85,83.99-141.27,59.9-205.37,70.25c-92.05,14.87-121.33,46.25-129.42,79.54
		c0.1,0.4,0.18,0.73,0.28,1.13c7.38,8.35,14.25,17.11,33.06,31.22c25.6,19.2,60.31,36.9,110.36,37.57
		c47.12,0.63,104.11-19.54,147.19-72.65c0.96-1.18-0.64-2.73-1.79-1.74c-59.02,50.84-131.64,39.96-141.93,16.17
		c-11.8-27.28,8.83-55.18,84.83-68.96c85.22-15.45,107.31-49.77,109.19-92.44h0c0-0.02,0-0.04,0-0.07c0.07-1.72,0.12-3.46,0.13-5.21
		C495.18,414.79,495.18,414.71,495.18,414.64z"/>
	<path class="st3" d="M385.9,495.61l3.96,3.56c11.41-1.95,22.78-4.35,33.58-7.57l-3.35-2.48C409.16,491.9,397.6,493.94,385.9,495.61
		z M313.22,504.64c-5.42,0.9-10.79,2.12-16.05,3.64l4.87,5.24c7.08-2.15,14.51-3.89,22.17-5.16c10.24-1.7,21.72-3.08,33.74-4.61
		l-4.63-4.19C339.24,501.11,325.59,502.59,313.22,504.64z M441.08,482.44l1.76,2.1c7.48-3.31,14.44-7.21,20.67-11.86l-1.48-1.12
		C455.73,475.86,448.68,479.44,441.08,482.44z M484.31,447.1c-2.92,5.54-6.54,10.45-10.76,14.8l1.04,0.77
		c4.09-4.5,7.63-9.53,10.5-15.16L484.31,447.1z M231.46,627.24c11.11,4.37,23.39,7.88,37.02,10.06l9.04-5.28
		c-22.59-9.39-38.48-22.52-43.13-39.47c-5.68-20.68,3.56-40.15,21.79-55.38l-8.96-3.49c-23.35,18.56-36.87,42.89-30.12,65.52
		C220.29,609.93,225.16,619.2,231.46,627.24z"/>
</g>
</svg>
