<svg xmlns="http://www.w3.org/2000/svg" width="220" height="47" fill="none"><path fill-rule="evenodd" clip-rule="evenodd" d="M0 3.615C0 1.62 1.646 0 3.676 0h25.73c2.031 0 3.677 1.619 3.677 3.615v5.423H12.866c-2.03 0-3.676 1.62-3.676 3.616v19.884H3.676C1.646 32.538 0 30.92 0 28.923V3.615Zm14.703 34.346v5.424C14.703 45.38 16.35 47 18.38 47H44.11c2.03 0 3.676-1.619 3.676-3.615V18.077c0-1.997-1.645-3.616-3.676-3.616h-5.514v19.885c0 1.997-1.645 3.616-3.675 3.616H14.703Z" fill="url(#a)"/><path d="M14.703 18.077c0-1.997 1.646-3.616 3.676-3.616h14.704v14.462c0 1.997-1.646 3.616-3.676 3.616H14.703V18.076Z" fill="url(#b)"/><path d="M58.228 6.914h8.505V8.72H60.24v3.314h5.964v1.805H60.24v3.419h6.599v1.805h-8.61V6.914ZM69.859 21.3h-1.782v-3.765h1.164c.93-1.62 1.376-3.888 1.34-6.803h6.617v6.803h1.253V21.3H76.67v-2.238h-6.81V21.3Zm2.487-9.04c-.07 2.082-.447 3.84-1.129 5.275h4.076v-5.276h-2.947ZM81.796 19.062h-1.623v-8.33h1.888v5.449l4.534-5.45h1.624v8.33H86.33v-5.448l-4.535 5.449ZM92.468 19.062H90.58v-8.33h1.888v3.35h4.235v-3.35h1.888v8.33h-1.888v-3.35h-4.235v3.35ZM105.152 19.062h-4.199v-8.33h1.888v2.777h2.311c1.035 0 1.853.26 2.453.78.6.521.9 1.186.9 1.996s-.3 1.475-.9 1.996c-.6.52-1.418.78-2.453.78Zm-2.311-4.096v2.62h1.941c.564 0 1.005-.11 1.323-.329.318-.231.476-.555.476-.972 0-.428-.158-.752-.476-.972-.318-.231-.759-.347-1.323-.347h-1.941Zm9.069 4.096h-1.888v-8.33h1.888v8.33ZM113.743 14.897c0-.717.129-1.365.388-1.944.259-.59.6-1.053 1.023-1.388a4.539 4.539 0 0 1 1.377-.781 4.244 4.244 0 0 1 1.499-.278c.647 0 1.23.099 1.747.295.53.197.953.463 1.271.799.317.335.576.723.776 1.162.2.44.306.903.318 1.389.011.474-.03.954-.124 1.44h-6.369c.094.706.446 1.238 1.058 1.597.612.347 1.341.52 2.188.52.965 0 1.859-.196 2.682-.59v1.597c-.812.381-1.823.572-3.035.572-1.376 0-2.523-.381-3.44-1.145-.906-.764-1.359-1.845-1.359-3.245Zm6.581-.694c.071-.475-.076-.949-.441-1.423-.353-.486-.941-.73-1.764-.73-.671 0-1.247.192-1.729.573-.471.382-.724.909-.759 1.58h4.693ZM127.633 13.092c0-1.041.188-1.978.564-2.811.377-.833.877-1.504 1.5-2.013a6.627 6.627 0 0 1 2.082-1.18 7.253 7.253 0 0 1 2.4-.4c1.258 0 2.429.267 3.511.799v1.926c-.882-.602-1.941-.902-3.176-.902-1.306 0-2.435.387-3.388 1.162-.953.775-1.435 1.915-1.447 3.419 0 .949.247 1.764.741 2.447.495.682 1.1 1.174 1.818 1.475.717.3 1.488.451 2.311.451 1.318 0 2.394-.312 3.229-.937v1.961a8.153 8.153 0 0 1-3.582.798 7.496 7.496 0 0 1-2.382-.381 7.244 7.244 0 0 1-2.099-1.146c-.635-.497-1.141-1.15-1.518-1.96-.376-.81-.564-1.713-.564-2.708ZM141.207 19.062h-1.623v-8.33h1.888v5.449l4.534-5.45h1.624v8.33h-1.888v-5.448l-4.535 5.449ZM149.462 14.966c0-1.446.464-2.55 1.394-3.314.929-.764 2.023-1.146 3.281-1.146 1.012 0 1.883.214 2.612.642v1.701c-.659-.463-1.441-.694-2.347-.694-.835 0-1.547.231-2.135.694-.588.451-.882 1.134-.882 2.048 0 .89.288 1.573.865 2.048.588.462 1.293.694 2.117.694a4.91 4.91 0 0 0 2.47-.642v1.718c-.812.381-1.747.572-2.805.572-1.235 0-2.306-.37-3.212-1.11-.905-.752-1.358-1.822-1.358-3.21ZM162.662 19.062h-1.888v-6.699h-2.929v-1.631h7.728v1.631h-2.911v6.699ZM166.296 14.897c0-.717.129-1.365.388-1.944.259-.59.6-1.053 1.024-1.388a4.522 4.522 0 0 1 1.376-.781 4.245 4.245 0 0 1 1.5-.278c.647 0 1.229.099 1.746.295.53.197.953.463 1.271.799.317.335.576.723.776 1.162.2.44.306.903.318 1.389.011.474-.03.954-.124 1.44h-6.369c.094.706.447 1.238 1.058 1.597.612.347 1.341.52 2.188.52.965 0 1.859-.196 2.682-.59v1.597c-.812.381-1.823.572-3.035.572-1.376 0-2.523-.381-3.44-1.145-.906-.764-1.359-1.845-1.359-3.245Zm6.581-.694c.071-.475-.076-.949-.441-1.423-.353-.486-.941-.73-1.764-.73-.671 0-1.247.192-1.729.573-.471.382-.724.909-.759 1.58h4.693ZM178.275 19.062h-1.818v-8.33h1.906l2.876 4.39 2.894-4.39h1.906v8.33h-1.818v-5.64l-2.418 3.644h-1.129l-2.399-3.644v5.64ZM190.286 19.062h-1.887v-8.33h1.887v3.35h4.235v-3.35h1.887v8.33h-1.887v-3.35h-4.235v3.35ZM202.97 19.062h-4.2v-8.33h1.889v2.777h2.311c1.034 0 1.852.26 2.453.78.6.521.899 1.186.899 1.996s-.299 1.475-.899 1.996c-.601.52-1.419.78-2.453.78Zm-2.311-4.096v2.62h1.941c.565 0 1.006-.11 1.324-.329.316-.231.476-.555.476-.972 0-.428-.16-.752-.476-.972-.318-.231-.759-.347-1.324-.347h-1.941Zm9.069 4.096h-1.888v-8.33h1.888v8.33ZM211.56 14.897c0-.717.131-1.365.39-1.944.257-.59.599-1.053 1.022-1.388a4.534 4.534 0 0 1 1.376-.781 4.254 4.254 0 0 1 1.5-.278c.647 0 1.23.099 1.748.295.529.197.952.463 1.27.799.318.335.575.723.776 1.162.2.44.307.903.318 1.389.011.474-.03.954-.124 1.44h-6.37c.094.706.447 1.238 1.059 1.597.612.347 1.342.52 2.189.52a6.14 6.14 0 0 0 2.681-.59v1.597c-.812.381-1.823.572-3.034.572-1.377 0-2.524-.381-3.441-1.145-.906-.764-1.36-1.845-1.36-3.245Zm6.582-.694c.072-.475-.076-.949-.441-1.423-.353-.486-.941-.73-1.765-.73-.67 0-1.246.192-1.729.573-.471.382-.722.909-.757 1.58h4.692ZM56.976 27.883h10.18v1.823h-4.075V40.03h-2.012V29.706h-4.093v-1.823ZM66.083 35.866c0-.717.13-1.365.388-1.944.259-.59.6-1.052 1.024-1.388a4.527 4.527 0 0 1 1.376-.78 4.246 4.246 0 0 1 1.5-.279c.647 0 1.229.099 1.746.295.53.197.953.463 1.27.799.318.335.577.723.777 1.162.2.44.306.903.318 1.389a6.69 6.69 0 0 1-.124 1.44h-6.37c.095.706.448 1.238 1.06 1.597.61.347 1.34.52 2.187.52a6.14 6.14 0 0 0 2.682-.59v1.597c-.812.382-1.823.573-3.035.573-1.376 0-2.523-.382-3.44-1.146-.906-.763-1.359-1.845-1.359-3.245Zm6.581-.694c.07-.474-.076-.949-.44-1.423-.354-.486-.942-.729-1.765-.729-.67 0-1.247.19-1.73.573-.47.381-.723.908-.758 1.579h4.693ZM81.453 31.701h2.152l-3.088 4.078 3.265 4.252h-2.153l-2.206-2.95-2.205 2.95h-2.153l3.264-4.252-3.087-4.078h2.152l2.03 2.811 2.029-2.81ZM86.989 40.031H85.1v-8.33h1.888v3.35h4.234V31.7h1.888v8.33h-1.888v-3.35H86.99v3.35ZM96.285 39.094c-.894-.775-1.34-1.851-1.34-3.228 0-1.377.446-2.453 1.34-3.228.906-.775 1.988-1.162 3.247-1.162 1.27 0 2.352.387 3.246 1.162.894.775 1.341 1.851 1.341 3.228 0 1.377-.447 2.453-1.341 3.228-.894.775-1.976 1.163-3.246 1.163-1.259 0-2.341-.388-3.247-1.163Zm5.17-1.267c.494-.497.741-1.151.741-1.96 0-.81-.247-1.459-.741-1.945-.494-.497-1.135-.746-1.923-.746-.8 0-1.447.249-1.941.746-.494.486-.741 1.134-.741 1.944s.247 1.464.74 1.961c.495.486 1.142.729 1.942.729.788 0 1.429-.243 1.923-.729ZM109.148 33.28a33.394 33.394 0 0 1-.283 2.794 11.53 11.53 0 0 1-.529 2.152c-.235.648-.547 1.14-.935 1.475-.377.324-.841.486-1.394.486-.365 0-.753-.075-1.165-.225v-1.458c.2.07.383.104.547.104.671 0 1.141-.573 1.412-1.718.282-1.157.47-2.887.564-5.189h6.529v8.33h-1.888v-6.75h-2.858ZM117.065 39.094c-.894-.775-1.341-1.851-1.341-3.228 0-1.377.447-2.453 1.341-3.228.906-.775 1.988-1.162 3.247-1.162 1.27 0 2.352.387 3.246 1.162.894.775 1.341 1.851 1.341 3.228 0 1.377-.447 2.453-1.341 3.228-.894.775-1.976 1.163-3.246 1.163-1.259 0-2.341-.388-3.247-1.163Zm5.17-1.267c.494-.497.741-1.151.741-1.96 0-.81-.247-1.459-.741-1.945-.494-.497-1.135-.746-1.923-.746-.8 0-1.447.249-1.941.746-.494.486-.741 1.134-.741 1.944s.247 1.464.741 1.961c.494.486 1.141.729 1.941.729.788 0 1.429-.243 1.923-.729ZM128.618 40.031h-1.888v-8.33h6.316v1.631h-4.428v6.699ZM136.141 40.031h-1.623v-8.33h1.888v5.45l4.535-5.45h1.623v8.33h-1.888v-5.45l-4.535 5.45ZM146.549 40.031h-1.624v-8.33h1.888v5.45l4.535-5.45h1.623v8.33h-1.888v-5.45l-4.534 5.45Z" fill="gray"/><defs><linearGradient id="a" x1="0" y1="0" x2="54.307" y2="9.425" gradientUnits="userSpaceOnUse"><stop stop-color="#FDA931"/><stop offset="1" stop-color="gray"/></linearGradient><linearGradient id="b" x1="14.703" y1="14.461" x2="35.591" y2="18.087" gradientUnits="userSpaceOnUse"><stop stop-color="#FDA931"/><stop offset="1" stop-color="gray"/></linearGradient></defs></svg>